<svg width="14" height="14" viewBox="0 0 14 14" fill="none" xmlns="http://www.w3.org/2000/svg">
<g clip-path="url(#clip0_2043_1721)">
<path d="M6.5625 9.21484V2.625C6.5625 2.37891 6.75391 2.1875 7 2.1875C7.24609 2.1875 7.4375 2.37891 7.4375 2.625V9.21484H6.5625ZM6.5625 10.0762H7.4375V10.8965H6.5625V10.0762ZM0 7C0 3.13086 3.13086 0 7 0C10.8691 0 14 3.13086 14 7C14 10.8691 10.8691 14 7 14C3.13086 14 0 10.8691 0 7ZM13.1387 7C13.1387 3.62305 10.377 0.875 7 0.875C3.62305 0.875 0.875 3.62305 0.875 7C0.875 10.377 3.62305 13.125 7 13.125C10.377 13.125 13.1387 10.377 13.1387 7Z" fill="#A5A5A5"/>
</g>
<defs>
<clipPath id="clip0_2043_1721">
<rect width="14" height="14" fill="white"/>
</clipPath>
</defs>
</svg>
