<svg width="54" height="32" viewBox="0 0 54 32" fill="none" xmlns="http://www.w3.org/2000/svg">
<path d="M0.5 16C0.5 7.16344 7.66345 0 16.5 0H37.5C46.3366 0 53.5 7.16344 53.5 16V32H16.5C7.66345 32 0.5 24.8366 0.5 16Z" fill="#4845D2"/>
<path d="M37.5 6H16.5C10.9772 6 6.5 10.4771 6.5 16C6.5 21.5228 10.9772 26 16.5 26H37.5C43.0229 26 47.5 21.5228 47.5 16C47.5 10.4771 43.0229 6 37.5 6Z" fill="#A5B4FC"/>
<path d="M16.5 21C19.2614 21 21.5 18.7614 21.5 16C21.5 13.2386 19.2614 11 16.5 11C13.7386 11 11.5 13.2386 11.5 16C11.5 18.7614 13.7386 21 16.5 21Z" fill="black"/>
<path d="M14.5 15C15.0523 15 15.5 14.5522 15.5 14C15.5 13.4477 15.0523 13 14.5 13C13.9478 13 13.5 13.4477 13.5 14C13.5 14.5522 13.9478 15 14.5 15Z" fill="white"/>
<path d="M38.5 21C41.2614 21 43.5 18.7614 43.5 16C43.5 13.2386 41.2614 11 38.5 11C35.7386 11 33.5 13.2386 33.5 16C33.5 18.7614 35.7386 21 38.5 21Z" fill="black"/>
<path d="M36.5 15C37.0523 15 37.5 14.5522 37.5 14C37.5 13.4477 37.0523 13 36.5 13C35.9478 13 35.5 13.4477 35.5 14C35.5 14.5522 35.9478 15 36.5 15Z" fill="white"/>
</svg>
