<svg width="40" height="40" viewBox="0 0 40 40" fill="none" xmlns="http://www.w3.org/2000/svg">
<rect width="40" height="40" rx="20" fill="#8DABF7"/>
<path d="M7 20C7 15.5817 10.5141 12 14.849 12H25.1509C29.4859 12 33 15.5817 33 20V28H14.849C10.5141 28 7 24.4183 7 20Z" fill="#4845D2"/>
<path d="M25.1509 15H14.849C12.1397 15 9.9434 17.2386 9.9434 20C9.9434 22.7614 12.1397 25 14.849 25H25.1509C27.8603 25 30.0566 22.7614 30.0566 20C30.0566 17.2386 27.8603 15 25.1509 15Z" fill="#A5B4FC"/>
<path d="M14.849 22.5C16.2037 22.5 17.3019 21.3807 17.3019 20C17.3019 18.6193 16.2037 17.5 14.849 17.5C13.4944 17.5 12.3962 18.6193 12.3962 20C12.3962 21.3807 13.4944 22.5 14.849 22.5Z" fill="black"/>
<path d="M13.8679 19.5C14.1389 19.5 14.3585 19.2761 14.3585 19C14.3585 18.7238 14.1389 18.5 13.8679 18.5C13.597 18.5 13.3773 18.7238 13.3773 19C13.3773 19.2761 13.597 19.5 13.8679 19.5Z" fill="white"/>
<path d="M25.6415 22.5C26.9962 22.5 28.0943 21.3807 28.0943 20C28.0943 18.6193 26.9962 17.5 25.6415 17.5C24.2869 17.5 23.1887 18.6193 23.1887 20C23.1887 21.3807 24.2869 22.5 25.6415 22.5Z" fill="black"/>
<path d="M24.6604 19.5C24.9313 19.5 25.1509 19.2761 25.1509 19C25.1509 18.7238 24.9313 18.5 24.6604 18.5C24.3895 18.5 24.1698 18.7238 24.1698 19C24.1698 19.2761 24.3895 19.5 24.6604 19.5Z" fill="white"/>
</svg>
